<?xml version="1.0" encoding="UTF-8"?>
<svg xmlns="http://www.w3.org/2000/svg" xmlns:xlink="http://www.w3.org/1999/xlink" width="49pt" height="38pt" viewBox="0 0 49 38" version="1.1">
<g id="surface1">
<path style=" stroke:none;fill-rule:evenodd;fill:rgb(14.901961%,39.607843%,3.921569%);fill-opacity:1;" d="M 0.566406 20.882812 C 0.203125 20.535156 0 20.054688 0 19.554688 C 0 19.050781 0.203125 18.570312 0.566406 18.222656 L 3.203125 15.566406 C 3.957031 14.808594 5.085938 14.808594 5.839844 15.566406 L 6.027344 15.757812 L 16.386719 26.957031 C 16.558594 27.140625 16.796875 27.242188 17.046875 27.242188 C 17.296875 27.242188 17.535156 27.140625 17.707031 26.957031 L 42.945312 0.566406 L 43.132812 0.566406 C 43.886719 -0.191406 45.015625 -0.191406 45.769531 0.566406 L 48.40625 3.226562 C 49.160156 3.984375 49.160156 5.125 48.40625 5.882812 L 18.269531 37.398438 C 17.894531 37.78125 17.515625 37.96875 16.953125 37.96875 C 16.386719 37.96875 16.011719 37.78125 15.632812 37.398438 L 0.941406 21.453125 Z M 0.566406 20.882812 "/>
</g>
</svg>
